# xmcd
#
# Track frame offsets:
#  150
#  23455
#  40213
#  53256
#  70458
#  83467
#  104049
#  124184
#  144379
#  164839
#  182510
#  202562
#  218894
#
# Disc length: 3145 seconds
#
# Revision: 0
# Processed by: cddbd v1.5.1PL0 Copyright (c) Steve Scherf et al.
# Submitted via: Collectorz.com_Music_Collector 6.9
#
DISCID=a90c470d
DTITLE=Barbara Lynn - Blues and Soul Situation
DYEAR=2004
DGENRE=
TTITLE0=You Make Me So Hot
TTITLE1=You Don't Sleep At Night
TTITLE2=You Better Quit It
TTITLE3=Movin On A Groove
TTITLE4=He Ain't Gonna Do Right
TTITLE5=I'm Not Doing Nothing Wrong
TTITLE6=I'm A Good Woman
TTITLE7=I Got Love If You Want
TTITLE8=Long Gone
TTITLE9=Matt's Hatt
TTITLE10=Money
TTITLE11=(Until Then) I'll Suffer
TTITLE12=Sugar Coated Love
EXTD=
EXTT0=
EXTT1=
EXTT2=
EXTT3=
EXTT4=
EXTT5=
EXTT6=
EXTT7=
EXTT8=
EXTT9=
EXTT10=
EXTT11=
EXTT12=
PLAYORDER=
